<?xml version="1.0" standalone="no"?>
<!DOCTYPE svg PUBLIC "-//W3C//DTD SVG 1.1//EN"
  "http://www.w3.org/Graphics/SVG/1.1/DTD/svg11.dtd">
<svg width="33mm" height="71.99910354614258mm" viewBox="-23.5 -23.40317153930664 33 71.99910354614258" xmlns="http://www.w3.org/2000/svg" version="1.1">
	<title>svgOutput</title>
	<desc>made with tinkercad</desc>
<path d="M -22.5 -7.3349504470825195 L -22.492773056030273 -7.342236518859863 L -22.476613998413086 -7.35854434967041 L -22.357303619384766 -7.478943347930908 L -22.356992721557617 -7.479256629943848 L -21.65069580078125 -8.192000389099121 L -21.5 -8.344070434570312 L -20.5 -8.344070434570312 L -20.5 -8.463967323303223 L -20.5 -12.288000106811523 L -20.5 -16.384000778198242 L -20.5 -22.40317153930664 L -19.388973236083984 -22.402999877929688 L -16.384000778198242 -22.402999877929688 L -14.487000465393066 -22.402999877929688 L -14.486656188964844 -16.384000778198242 L -14.486644744873047 -16.18802833557129 L -14.486190795898438 -8.192000389099121 L -14.486034393310547 -5.43347692489624 L -14.486006736755371 -4.946990966796875 L -14.486004829406738 -4.921525955200195 L -14.486001968383789 -4.862229347229004 L -14.486000061035156 -4.835041046142578 L -16.15419578552246 -4.8227314949035645 L -16.306774139404297 -4.823473930358887 L -16.384000778198242 -4.823879718780518 L -17.520999908447266 -4.82985258102417 L -17.52133560180664 -4.82985258102417 L -17.520999908447266 -4.834908962249756 L -18.255075454711914 -4.834908962249756 L -18.378421783447266 -4.82985258102417 L -19.496999740600586 -4.783999919891357 L -19.496999740600586 -4.82985258102417 L -19.496999740600586 -4.839634895324707 L -19.496999740600586 -4.946990966796875 L -19.496999740600586 -5.43347692489624 L -19.496999740600586 -5.9070000648498535 L -20.479999542236328 -5.9070000648498535 L -22.427000045776367 -5.9070000648498535 L -22.416654586791992 -7.090363025665283 L -22.41448402404785 -7.329989433288574 L -22.414567947387695 -7.329994201660156 L -22.499422073364258 -7.3345842361450195 L -22.499977111816406 -7.334727764129639 L -22.5 -7.334733486175537 L -22.5 -7.334943771362305 L -22.5 -7.3349504470825195 M -22.5 2.5273895263671875 L -22.5 2.5273799896240234 L -22.5 2.5264761447906494 L -22.5 2.526475667953491 L -22.42226791381836 2.5264720916748047 L -20.5 2.5263726711273193 L -20.479999542236328 2.526371717453003 L -19.996999740600586 2.5263466835021973 L -19.996999740600586 2.4645798206329346 L -20.479999542236328 2.447598695755005 L -20.5 2.4468955993652344 L -22.00749969482422 2.393895149230957 L -22.49960708618164 2.376776695251465 L -22.498085021972656 2.193127155303955 L -22.48900032043457 1.0980000495910645 L -20.5 1.0980000495910645 L -20.479999542236328 1.0980000495910645 L -19.996999740600586 1.0980000495910645 L -19.496999740600586 1.0980000495910645 L -19.496999740600586 0.018455369397997967 L -17.74977684020996 0.04996296390891086 L -17.706132888793945 0.050749998539686314 L -17.347373962402344 0.04996296390891086 L -16.384000778198242 0.04996296390891086 L -14.486000061035156 0.04996296390891086 L -14.486000061035156 0.14042720198631298 L -14.486000061035156 4.0960001945495605 L -14.486000061035156 8.192000389099121 L -14.486000061035156 16.384000778198242 L -14.486000061035156 17.594999313354492 L -14.486000061035156 17.59592056274414 L -14.486124992370605 17.595874786376953 L -14.486000061035156 17.59600067138672 L -14.486000061035156 20.479999542236328 L -14.486000061035156 24.576000213623047 L -14.486000061035156 25.053009033203125 L -14.486000061035156 25.078474044799805 L -14.486000061035156 25.164958953857422 L -14.488788604736328 25.164979934692383 L -16.15419578552246 25.177268981933594 L -16.306774139404297 25.176525115966797 L -16.384000778198242 25.17612075805664 L -17.51715850830078 25.170167922973633 L -17.520999908447266 25.170146942138672 L -17.52133560180664 25.170146942138672 L -17.520999908447266 25.165090560913086 L -18.255075454711914 25.165090560913086 L -18.378421783447266 25.170146942138672 L -19.07858657836914 25.198848724365234 L -19.496999740600586 25.215999603271484 L -19.496999740600586 25.201936721801758 L -19.496999740600586 25.170146942138672 L -19.496999740600586 25.16036605834961 L -19.496999740600586 25.053009033203125 L -19.496999740600586 24.576000213623047 L -19.496999740600586 24.093000411987305 L -19.996999740600586 24.093000411987305 L -20.479999542236328 24.093000411987305 L -22.427000045776367 24.093000411987305 L -22.416654586791992 22.909637451171875 L -22.41448402404785 22.67000961303711 L -22.414560317993164 22.670005798339844 L -22.49770736694336 22.665508270263672 L -22.499422073364258 22.665416717529297 L -22.5 22.665266036987305 L -22.5 22.665050506591797 L -22.497629165649414 22.662660598754883 L -22.492773056030273 22.65776252746582 L -22.36418342590332 22.527999877929688 L -21.5 21.655929565429688 L -21.49913215637207 21.655929565429688 L -20.5 21.655929565429688 L -20.5 20.479999542236328 L -20.5 16.384000778198242 L -20.5 8.192000389099121 L -20.5 4.0960001945495605 L -20.5 3.5360708236694336 L -21.5 3.5360708236694336 L -22.35909080505371 2.66951322555542 L -22.469135284423828 2.5585124492645264 L -22.5 2.5273895263671875 M -22.498085021972656 32.1931266784668 L -22.48900032043457 31.097999572753906 L -20.479999542236328 31.097999572753906 L -19.996999740600586 31.097999572753906 L -19.496999740600586 31.097999572753906 L -19.496999740600586 30.719999313354492 L -19.496999740600586 30.054677963256836 L -19.496999740600586 30.049962997436523 L -19.496999740600586 30.018455505371094 L -17.74977684020996 30.049962997436523 L -17.706132888793945 30.050750732421875 L -17.347373962402344 30.049962997436523 L -16.384000778198242 30.049962997436523 L -14.486000061035156 30.049962997436523 L -14.486000061035156 32.768001556396484 L -14.486000061035156 47.59593200683594 L -16.384000778198242 47.595821380615234 L -19.389690399169922 47.59564971923828 L -20.5 47.595829010009766 L -20.5 40.959999084472656 L -20.5 36.86399841308594 L -20.5 33.53607177734375 L -21.49970245361328 33.53607177734375 L -21.5 33.53607177734375 L -22.26145362854004 32.768001556396484 L -22.469135284423828 32.55851364135742 L -22.5 32.52738952636719 L -22.5 32.5264778137207 L -22.5 32.52647399902344 L -22.42226791381836 32.52647018432617 L -20.936330795288086 32.52639389038086 L -20.479999542236328 32.526371002197266 L -19.996999740600586 32.52634811401367 L -19.996999740600586 32.46458053588867 L -20.479999542236328 32.44759750366211 L -22.00749969482422 32.39389419555664 L -22.49960708618164 32.37677764892578 L -22.499605178833008 32.37659454345703 L -22.498085021972656 32.1931266784668 M 8.5 47.595829010009766 L 7.305363655090332 47.59564971923828 L 2.246000051498413 47.59593200683594 L 2.246000051498413 47.594886779785156 L 2.246000051498413 32.768001556396484 L 2.246000051498413 30.04970359802246 L 4.0960001945495605 30.04970359802246 L 8.192000389099121 30.04970359802246 L 8.5 30.04970359802246 L 8.5 32.710506439208984 L 8.5 32.768001556396484 L 8.5 47.595829010009766 M 2.246589183807373 -15.21385669708252 L 2.2466561794281006 -16.384000778198242 L 2.2468206882476807 -19.258033752441406 L 2.246999979019165 -22.402273178100586 L 2.246999979019165 -22.40242576599121 L 2.246999979019165 -22.402999877929688 L 7.304590702056885 -22.402999877929688 L 8.5 -22.40317153930664 L 8.5 -16.384000778198242 L 8.5 -8.192000389099121 L 8.5 -4.8406195640563965 L 8.192000389099121 -4.8406195640563965 L 7.953907012939453 -4.8406195640563965 L 5.303107738494873 -4.8406195640563965 L 4.0960001945495605 -4.840590000152588 L 2.246000051498413 -4.840544700622559 L 2.246000051498413 -4.8406195640563965 L 2.246190309524536 -8.192000389099121 L 2.2462618350982666 -9.450573921203613 L 2.246589183807373 -15.21385669708252 M 2.246000051498413 25.159454345703125 L 2.246000051498413 25.159379959106445 L 2.246000051498413 24.81926918029785 L 2.246000051498413 24.576000213623047 L 2.246000051498413 20.479999542236328 L 2.246000051498413 17.59604835510254 L 2.246000051498413 17.594999313354492 L 2.246000051498413 16.384000778198242 L 2.246000051498413 8.192000389099121 L 2.246000051498413 4.0960001945495605 L 2.246000051498413 0.049703534692525975 L 4.0960001945495605 0.049703534692525975 L 8.036639213562012 0.049703534692525975 L 8.192000389099121 0.049703534692525975 L 8.5 0.049703534692525975 L 8.5 8.192000389099121 L 8.5 16.384000778198242 L 8.5 24.576000213623047 L 8.5 24.81926918029785 L 8.5 25.159379959106445 L 8.192000389099121 25.159379959106445 L 5.303107738494873 25.159379959106445 L 4.0960001945495605 25.15941047668457 L 2.246000051498413 25.159454345703125 M -20.382692337036133 22.71492576599121 L -20.037532806396484 22.72684669494629 L -19.996999740600586 22.72822380065918 L -19.996999740600586 22.664947509765625 L -20.479999542236328 22.665056228637695 L -20.515857696533203 22.665063858032227 L -20.83650016784668 22.66510009765625 L -21.799571990966797 22.665210723876953 L -21.79559898376465 22.66535186767578 L -20.479999542236328 22.711511611938477 L -20.382692337036133 22.71492576599121 M -20.037532806396484 -7.273154258728027 L -19.996999740600586 -7.2717766761779785 L -19.996999740600586 -7.334996223449707 L -19.996999740600586 -7.335052967071533 L -20.479999542236328 -7.334944725036621 L -20.515857696533203 -7.334936618804932 L -21.799571990966797 -7.3347883224487305 L -20.479999542236328 -7.288487911224365 L -20.382692337036133 -7.285073280334473 L -20.037532806396484 -7.273154258728027 z" fill="none" stroke="rgb(0,0,255)" stroke-width="0.01mm" />
</svg>